<?xml version="1.0" encoding="utf-8"?>
<!-- Generator: Adobe Illustrator 26.0.0, SVG Export Plug-In . SVG Version: 6.00 Build 0)  -->
<svg version="1.1" id="Capa_1" xmlns="http://www.w3.org/2000/svg" xmlns:xlink="http://www.w3.org/1999/xlink" x="0px" y="0px"
	 viewBox="0 0 100.3 93.5" style="enable-background:new 0 0 100.3 93.5;" xml:space="preserve">
<style type="text/css">
	.st0{fill-rule:evenodd;clip-rule:evenodd;fill:#192659;}
	.st1{fill:#192659;}
	.st2{fill-rule:evenodd;clip-rule:evenodd;fill:#A56D10;}
	.st3{fill:#225089;}
	.st4{fill-rule:evenodd;clip-rule:evenodd;fill:#023E73;}
	.st5{fill-rule:evenodd;clip-rule:evenodd;fill:#40A629;}
	.st6{fill:#ED1C24;}
	.st7{fill:#023E73;}
	.st8{fill-rule:evenodd;clip-rule:evenodd;fill:#3F2559;}
	.st9{fill:#3F2559;}
	.st10{fill-rule:evenodd;clip-rule:evenodd;fill:#254D4D;}
	.st11{fill:#254D4D;}
	.st12{fill:#A56D10;}
</style>
<g>
	<path class="st1" d="M69.2,68.5v6.6c0,0.5-0.4,0.9-0.9,0.9H32c-0.5,0-0.9-0.4-0.9-0.9v-6.6c0-7.1,4.4-13.3,10.7-15.8
		c0.2,0.2,0.4,0.4,0.6,0.6c0.6,0.5,1.3,1,2,1.5c0.9,0.6,1.8,1.1,2.8,1.6c0.8,0.4,1.7,0.6,2.7,0.6c1,0,2.1-0.3,3-0.7
		c0.8-0.4,1.7-0.9,2.5-1.4c1.1-0.7,2.1-1.4,3-2.1C64.9,55.2,69.2,61.4,69.2,68.5z"/>
	<path class="st1" d="M70.2,35.1h-1.6c-0.5-9.7-8.5-17.5-18.4-17.5s-17.9,7.8-18.4,17.5h-1.6c-0.5,0-0.9,0.4-0.9,0.9v8.9
		c0,0.5,0.4,0.9,0.9,0.9h1.4c0.1,1.6,0.3,3,0.7,4.3c-0.1,0.2-0.1,0.3-0.1,0.5c0,1.1,1.7,2,3.8,2s3.8-0.9,3.8-2s-1.7-2-3.8-2
		c-0.8,0-1.5,0.1-2.1,0.3c-0.3-1-0.4-2-0.5-3.2h1.3c0.5,0,0.9-0.4,0.9-0.9V36c0-0.5-0.4-0.9-0.9-0.9h-1.1
		c0.5-8.7,7.7-15.7,16.6-15.7s16.1,7,16.6,15.7h-1.1c-0.5,0-0.9,0.4-0.9,0.9v8.9c0,0.5,0.4,0.9,0.9,0.9h4.6c0.5,0,0.9-0.4,0.9-0.9
		V36C71.1,35.5,70.7,35.1,70.2,35.1z"/>
	<path class="st1" d="M45.6,52.3c0.8,0.6,1.7,1.1,2.6,1.5c0.6,0.3,1.3,0.4,1.9,0.4c0.7,0,1.5-0.2,2.1-0.5c0.8-0.4,1.6-0.9,2.4-1.4
		c3.8-2.4,8.3-6.1,8.3-10.5v-7.4c0-3.4-1.3-6.6-3.7-9c-2.4-2.4-5.6-3.7-9-3.7c-7,0-12.7,5.7-12.7,12.7v5c0,2,0.5,3.9,1.4,5.6
		c1.2,2.2,2.9,4.2,4.8,5.8C44.3,51.4,44.9,51.8,45.6,52.3z M40.5,44.2c-0.8-1.4-1.2-3-1.2-4.7V39c0.3,0,0.5,0,0.8,0
		c1.6,0,3.6-0.3,5.7-1.1c3.4-1.4,5.5-3.7,6.6-5.5c0.7,0.7,1.5,1.4,2.4,2c1.9,1.3,4,2.2,6.3,2.7v4.7c0,3.7-4.7,7.2-7.5,8.9
		c-1,0.6-1.8,1-2.3,1.3c-0.7,0.4-1.6,0.4-2.4,0.1c-0.8-0.4-1.6-0.8-2.3-1.3c-0.6-0.4-1.2-0.8-1.7-1.3C43.1,48,41.6,46.2,40.5,44.2z"
		/>
	<path class="st1" d="M45.1,41.3c0.1,0,0.1-0.1,0.2-0.1c0.1,0,0.1-0.1,0.1-0.1c0.1-0.1,0.1-0.2,0.2-0.3c0-0.1,0.1-0.2,0.1-0.4
		c0-0.2-0.1-0.5-0.3-0.6c0,0-0.1-0.1-0.1-0.1c0,0-0.1-0.1-0.2-0.1c-0.1,0-0.1,0-0.2,0c-0.3-0.1-0.6,0-0.8,0.2
		c-0.2,0.2-0.3,0.4-0.3,0.6c0,0.1,0,0.2,0.1,0.4c0,0.1,0.1,0.2,0.2,0.3c0.2,0.2,0.4,0.3,0.6,0.3c0.1,0,0.1,0,0.2,0
		C44.9,41.3,45,41.3,45.1,41.3z"/>
	<path class="st1" d="M55.6,41.4c0.2,0,0.5-0.1,0.6-0.3c0.2-0.2,0.3-0.4,0.3-0.6c0-0.2-0.1-0.5-0.3-0.6c-0.2-0.3-0.6-0.3-1-0.2
		c-0.1,0-0.2,0.1-0.3,0.2c-0.2,0.2-0.3,0.4-0.3,0.6c0,0.2,0.1,0.5,0.3,0.6C55.2,41.3,55.4,41.4,55.6,41.4z"/>
</g>
</svg>
