<svg id="Capa_1" data-name="Capa 1" xmlns="http://www.w3.org/2000/svg" viewBox="0 0 721.42 284.16"><defs><style>.cls-1{fill:#1a1a1a;}.cls-2{fill:#192659;}.cls-3{fill:#a56d10;}</style></defs><path class="cls-1" d="M76.32,253.49,123.23,89.3H135l46.91,164.19H158.41q-11.73-35.18-29.32-35.18T99.77,253.49ZM105.64,77.58l25.8-46.91h32.83l-34,46.91Zm23.45,70.36L111.5,206.58q17.6-11.73,35.18,0Z"/><path class="cls-1" d="M195.12,89.3H230.3a58.67,58.67,0,0,1,58.64,58.64,56.4,56.4,0,0,1-17.12,41.4,60.05,60.05,0,0,1-12.2,9.5,35.22,35.22,0,0,1-29.32,54.65H195.12Zm23.45,93.82H230.3a35.23,35.23,0,0,0,35.18-35.18,35.23,35.23,0,0,0-35.18-35.18H218.57Zm0,23.46V230H230.3a11.73,11.73,0,0,0,0-23.46Z"/><path class="cls-1" d="M285.07,253.49,332,89.3h11.73l46.91,164.19H367.16q-11.73-35.18-29.32-35.18t-29.32,35.18Zm52.77-105.55-17.59,58.64q17.6-11.73,35.18,0Z"/><path class="cls-1" d="M474.82,89.3h11.73v23.46H474.82a58.66,58.66,0,0,0-58.64,58.64A58.67,58.67,0,0,0,474.82,230h11.73v23.45H474.82q-34,0-58.05-24t-24-58q0-34,24-58.05T474.82,89.3Z"/><path class="cls-1" d="M621.06,113.35q-24-24-58-24t-58.05,24q-24,24-24,58.05t24,58q24,24,58.05,24t58-24q24-24,24.05-58T621.06,113.35Zm-34.85,77.38a7.76,7.76,0,0,0-7.74,7.73v1.93h-3.86v-1.93a7.73,7.73,0,0,0-15.46,0v1.93H524.36V175.26h7.73v1.94a7.73,7.73,0,1,0,15.46,0v-1.94h30.92v1.94a7.74,7.74,0,0,0,15.47,0v-1.94h7.73v25.13h-7.73v-1.93A7.75,7.75,0,0,0,586.21,190.73Zm-54.12-48.32v1.93a7.73,7.73,0,1,0,15.46,0v-1.93h3.87v1.93a7.73,7.73,0,0,0,15.46,0v-1.93h3.86v1.93a7.74,7.74,0,0,0,15.47,0v-1.93h15.46v25.12h-7.73V165.6a7.74,7.74,0,0,0-15.47,0v1.93H547.55V165.6a7.73,7.73,0,1,0-15.46,0v1.93h-7.73V142.41h7.73m0-7.73h-7.73v-7.37a58.62,58.62,0,0,1,77.31,0v7.37H586.21v-1.94a7.74,7.74,0,0,0-15.47,0v1.94h-3.86v-1.94a7.73,7.73,0,0,0-15.46,0v1.94h-3.87v-1.94a7.73,7.73,0,1,0-15.46,0v1.94M504.37,171.4a56.16,56.16,0,0,1,12.25-35.91v71.82A56.18,56.18,0,0,1,504.37,171.4Zm20,44.08v-7.36h34.79v1.93a7.73,7.73,0,0,0,15.46,0v-1.93h3.86v1.93a7.74,7.74,0,0,0,15.47,0v-1.93h7.73v7.36a58.59,58.59,0,0,1-77.31,0Zm85-8.17V135.49a56.16,56.16,0,0,1,12.25,35.91A56.18,56.18,0,0,1,609.4,207.31Z"/><rect class="cls-2" x="532.09" y="125.01" width="15.54" height="27" rx="6.75"/><rect class="cls-2" x="532.09" y="157.9" width="15.54" height="27" rx="6.75"/><rect class="cls-2" x="559.13" y="190.79" width="15.54" height="27" rx="6.75"/><rect class="cls-2" x="578.4" y="157.9" width="15.54" height="27" rx="6.75"/><rect class="cls-3" x="551.36" y="125.01" width="15.54" height="27" rx="6.75"/><rect class="cls-3" x="578.4" y="190.79" width="15.54" height="27" rx="6.75"/><rect class="cls-2" x="570.63" y="125.01" width="15.54" height="27" rx="6.75"/></svg>